<svg width="175" height="40" viewBox="0 0 175 40" fill="none" xmlns="http://www.w3.org/2000/svg">
<path d="M2.72279 6.66V14.6609C2.72279 15.9733 2.72279 17.4474 0 17.4474V19.6091V19.6383V21.7459C2.72279 21.7459 2.72279 23.2191 2.72279 24.5324V32.5326C2.72279 38.7417 6.12477 39.1926 11.9095 39.1926V34.3633C9.18674 34.3633 8.16666 33.9624 8.16666 32.4133V24.4917C8.16666 22.6624 8.29224 20.7517 6.69547 19.5959C8.29224 18.4417 8.16666 16.5309 8.16666 14.7V6.78C8.16666 5.2325 9.18759 4.83 11.9095 4.83V1.14584e-06C6.12477 -0.000831039 2.72279 0.450003 2.72279 6.66ZM18.0309 6.40083C16.5434 7.6575 15.8001 9.4625 15.8001 11.8142V13.9267H12.693V18.3409H15.8001V34.3374H22.552V18.3409H26.7349V13.9267H22.552V12.42C22.552 11.6533 22.7776 11.0625 23.2287 10.6475C23.6799 10.2325 24.3249 10.0258 25.1613 10.0258C25.5721 10.0258 27.6713 10.0325 27.6713 10.0325V4.91C27.6713 4.91 23.9233 4.86917 23.3876 4.86917C21.7576 4.86917 19.5183 5.1425 18.0309 6.40083ZM30.641 10.0142H37.3937V4.91H30.641V10.0142ZM30.641 34.3383H37.3937V13.9267H30.641V34.3383ZM54.0449 13.5492C52.7701 13.5492 51.6142 13.8358 50.5787 14.4074C49.5433 14.9791 48.6736 15.7759 47.9696 16.7933L47.7107 13.9267H41.3963V34.3374H48.1089V19.6624C48.454 19.285 48.8691 18.9876 49.3536 18.7759C49.838 18.5641 50.3924 18.455 51.017 18.455C52.0131 18.455 52.7667 18.6974 53.2776 19.1809C53.7886 19.6659 54.0449 20.4909 54.0449 21.6617V34.3391H60.777V21.6809C60.777 18.8509 60.1824 16.7883 58.9949 15.4924C57.8064 14.1967 56.1559 13.5492 54.0449 13.5492ZM81.1377 24.2741C79.8699 23.3 77.9203 22.5659 75.2914 22.0759C73.6186 21.7759 72.5054 21.4341 71.9553 21.0567C71.4041 20.6809 71.1283 20.22 71.1283 19.68C71.1283 19.1133 71.3674 18.6509 71.845 18.285C72.3226 17.92 72.9139 17.7367 73.6177 17.7367C74.5737 17.7367 75.2676 17.945 75.699 18.36C76.1304 18.775 76.3466 19.385 76.3466 20.1891H82.8797L82.9199 20.0767C83.0002 18.15 82.1903 16.5841 80.4902 15.37C78.79 14.1558 76.5054 13.5483 73.6374 13.5483C70.9146 13.5483 68.7574 14.175 67.1633 15.4267C65.5699 16.6783 64.7736 18.2017 64.7736 19.9991C64.7736 21.6967 65.411 23.0374 66.6857 24.0174C67.9603 24.9991 69.8527 25.7217 72.3627 26.1874C73.9562 26.5017 75.0547 26.8567 75.6589 27.2524C76.2637 27.6491 76.5653 28.1 76.5653 28.6C76.5653 29.2167 76.3329 29.6933 75.8681 30.0241C75.4033 30.3576 74.7199 30.5267 73.8169 30.5267C72.7284 30.5267 71.8877 30.3109 71.2974 29.8841C70.7061 29.4574 70.3977 28.7591 70.3713 27.7909H64.2764L64.2372 27.9033C64.1577 29.64 64.9701 31.2124 66.6771 32.62C68.3833 34.0291 70.7036 34.7324 73.6383 34.7324C76.467 34.7324 78.7404 34.1383 80.4602 32.9491C82.1809 31.7609 83.0403 30.25 83.0403 28.4126C83.0403 26.6283 82.4056 25.2483 81.1377 24.2741ZM105.171 25.755H105.052L101.507 13.9283H97.2634L93.758 25.8509H93.6384L91.2684 13.9283H85.054L90.133 34.3391H95.811L99.3352 23.5117H99.4547L102.961 34.3391H108.658L113.717 13.9283H107.503L105.171 25.755ZM125.147 13.549C121.947 13.5367 119.486 14.515 117.767 16.4833C116.045 18.4509 115.186 20.9883 115.186 24.0941V24.8117C115.186 27.6533 116.132 30.0183 118.023 31.905C119.915 33.7926 122.449 34.735 125.623 34.735C127.336 34.735 128.94 34.5183 130.434 34.0841C131.927 33.6509 133.147 33.1076 134.088 32.4533L132.496 28.5667C131.327 29.0333 130.361 29.3591 129.597 29.5483C128.832 29.7383 127.813 29.8326 126.538 29.8326C125.276 29.8326 124.268 29.4959 123.511 28.8233C122.754 28.1483 122.303 27.2909 122.156 26.2474L122.197 26.1333H134.506V22.7924C134.506 19.9509 133.675 17.7 132.016 16.0391C130.359 14.3791 128.068 13.549 125.147 13.549ZM127.936 22.1524H122.139L122.079 22.0591C122.186 20.9641 122.482 20.09 122.967 19.4359C123.451 18.7833 124.179 18.4559 125.148 18.4559C126.104 18.4559 126.807 18.7324 127.26 19.2859C127.711 19.8391 127.938 20.6317 127.938 21.6624L127.936 22.1524ZM147.74 13.549C144.539 13.5367 142.08 14.515 140.359 16.4833C138.64 18.4509 137.779 20.9883 137.779 24.0941V24.8117C137.779 27.6533 138.725 30.0183 140.618 31.905C142.511 33.7926 145.043 34.735 148.216 34.735C149.93 34.735 151.534 34.5183 153.029 34.0841C154.523 33.6509 155.74 33.1076 156.683 32.4533L155.09 28.5667C153.921 29.0333 152.956 29.3591 152.191 29.5483C151.426 29.7383 150.407 29.8326 149.133 29.8326C147.871 29.8326 146.863 29.4959 146.106 28.8233C145.347 28.1483 144.897 27.2909 144.75 26.2474L144.79 26.1333H157.1V22.7924C157.1 19.9509 156.27 17.7 154.61 16.0391C152.95 14.3791 150.661 13.549 147.74 13.549ZM150.527 22.1524H144.733L144.673 22.0591C144.78 20.9641 145.074 20.09 145.559 19.4359C146.041 18.7833 146.77 18.4559 147.74 18.4559C148.696 18.4559 149.4 18.7324 149.853 19.2859C150.306 19.8391 150.53 20.6317 150.53 21.6624V22.1533H150.527V22.1524ZM170.931 29.0441C170.096 29.0441 169.45 28.8376 168.999 28.4226C168.549 28.0076 168.321 27.415 168.321 26.6483V18.3767H171.824V13.9608H168.321V4.8775H161.57V13.9608H158.461V18.3767H161.57V27.2541C161.57 29.6059 162.313 31.4109 163.8 32.6691C165.286 33.9283 167.524 34.2009 169.157 34.2009C169.694 34.2009 173.441 34.16 173.441 34.16V29.0376C173.441 29.0376 171.344 29.0441 170.931 29.0441Z" fill="#1E1B1B"/>
</svg>
