<svg width="69" height="54" viewBox="0 0 69 54" fill="none" xmlns="http://www.w3.org/2000/svg">
<path d="M62.506 6.97972H34.6673L29.1224 0.306524C28.9569 0.105172 28.7089 -0.00774894 28.4503 0.00041399H6.04897C2.69583 0.0340861 -0.00386047 2.79673 4.14398e-06 6.19063V47.0053C-0.000163883 50.3965 2.69851 53.1552 6.04897 53.1887H62.506C65.8564 53.1552 68.5551 50.3965 68.5549 47.0053V13.1631C68.5551 9.77195 65.8564 7.01339 62.506 6.97972Z" fill="#503AE7"/>
<path d="M26.3789 21.356L21.2812 36.1451H18.1992L24.6211 19.0826H26.5898L26.3789 21.356ZM30.6445 36.1451L25.5352 21.356L25.3125 19.0826H27.293L33.7383 36.1451H30.6445ZM30.3984 29.817V32.149H21.1172V29.817H30.3984ZM42.5156 33.6021V27.5552C42.5156 27.1021 42.4336 26.7115 42.2695 26.3834C42.1055 26.0552 41.8555 25.8013 41.5195 25.6216C41.1914 25.442 40.7773 25.3521 40.2773 25.3521C39.8164 25.3521 39.418 25.4302 39.082 25.5865C38.7461 25.7427 38.4844 25.9537 38.2969 26.2193C38.1094 26.4849 38.0156 26.7857 38.0156 27.1216H35.2031C35.2031 26.6216 35.3242 26.1373 35.5664 25.6685C35.8086 25.1998 36.1602 24.7818 36.6211 24.4146C37.082 24.0474 37.6328 23.7584 38.2734 23.5474C38.9141 23.3365 39.6328 23.231 40.4297 23.231C41.3828 23.231 42.2266 23.3912 42.9609 23.7115C43.7031 24.0318 44.2852 24.5162 44.707 25.1646C45.1367 25.8052 45.3516 26.6099 45.3516 27.5787V33.2154C45.3516 33.7935 45.3906 34.313 45.4688 34.774C45.5547 35.2271 45.6758 35.6216 45.832 35.9576V36.1451H42.9375C42.8047 35.8404 42.6992 35.4537 42.6211 34.9849C42.5508 34.5084 42.5156 34.0474 42.5156 33.6021ZM42.9258 28.4341L42.9492 30.1802H40.9219C40.3984 30.1802 39.9375 30.231 39.5391 30.3326C39.1406 30.4263 38.8086 30.567 38.543 30.7545C38.2773 30.942 38.0781 31.1685 37.9453 31.4341C37.8125 31.6998 37.7461 32.0005 37.7461 32.3365C37.7461 32.6724 37.8242 32.981 37.9805 33.2623C38.1367 33.5357 38.3633 33.7505 38.6602 33.9068C38.9648 34.063 39.332 34.1412 39.7617 34.1412C40.3398 34.1412 40.8438 34.024 41.2734 33.7896C41.7109 33.5474 42.0547 33.2545 42.3047 32.9107C42.5547 32.5591 42.6875 32.2271 42.7031 31.9146L43.6172 33.1685C43.5234 33.4888 43.3633 33.8326 43.1367 34.1998C42.9102 34.567 42.6133 34.9185 42.2461 35.2545C41.8867 35.5826 41.4531 35.8521 40.9453 36.063C40.4453 36.274 39.8672 36.3795 39.2109 36.3795C38.3828 36.3795 37.6445 36.2154 36.9961 35.8873C36.3477 35.5513 35.8398 35.1021 35.4727 34.5396C35.1055 33.9693 34.9219 33.3248 34.9219 32.606C34.9219 31.9341 35.0469 31.3404 35.2969 30.8248C35.5547 30.3013 35.9297 29.8638 36.4219 29.5123C36.9219 29.1607 37.5312 28.8951 38.25 28.7154C38.9688 28.5279 39.7891 28.4341 40.7109 28.4341H42.9258Z" fill="white"/>
</svg>
